# xmcd
#
# Track frame offsets:
#	150
#	8640
#	18305
#	29665
#	43347
#	55517
#	72557
#	85035
#	101952
#	113797
#	123687
#	133842
#
# Disc length: 1926 seconds
#
# Revision: 0
# Processed by: cddbd v1.4PL0 Copyright (c) Steve Scherf et al.
# Submitted via: EasyCDDAExtractor 4.6.0.1
#
DISCID=a807840c
DTITLE=Various Artist - Bluegrass From Heaven Vol. 1
DYEAR=1995
DGENRE=Bluegrass
TTITLE0=Somebody Touched Me
TTITLE1=Just A Little Talk With Jesus
TTITLE2=Go Down Yonder, Moses
TTITLE3=Great Speckled Bird
TTITLE4=I Am A Pilgrim
TTITLE5=Tramp On The Street
TTITLE6=These Hands
TTITLE7=Life's Railway To Heaven
TTITLE8=A Beautiful Life
TTITLE9=I'm Using My Bible For A Roadmap
TTITLE10=The Fourth Man
TTITLE11=I'll Fly Away
EXTD=
EXTT0=
EXTT1=
EXTT2=
EXTT3=
EXTT4=
EXTT5=
EXTT6=
EXTT7=
EXTT8=
EXTT9=
EXTT10=
EXTT11=
PLAYORDER=
